<svg width="24" height="24" viewBox="0 0 24 24" fill="none" xmlns="http://www.w3.org/2000/svg">
<path d="M16.5 12.3773C16.7071 12.3773 16.8749 12.2094 16.8749 12.0023C16.8749 11.7951 16.7071 11.6272 16.5 11.6272L16.5 12.0023L16.5 12.3773ZM7.49996 12.0023L7.23484 11.737C7.08842 11.8835 7.08842 12.121 7.23484 12.2675L7.49996 12.0023ZM11.2726 16.3066C11.419 16.4531 11.6564 16.4531 11.8028 16.3066C11.9492 16.1602 11.9492 15.9227 11.8028 15.7762L11.5377 16.0414L11.2726 16.3066ZM11.8028 8.22827C11.9492 8.0818 11.9492 7.84432 11.8028 7.69785C11.6564 7.55138 11.419 7.55138 11.2726 7.69785L11.5377 7.96306L11.8028 8.22827ZM16.5 12.0023L16.5 11.6272L7.49996 11.6272L7.49996 12.0023L7.49996 12.3773L16.5 12.3773L16.5 12.0023ZM11.5377 16.0414L11.8028 15.7762L7.76507 11.737L7.49996 12.0023L7.23484 12.2675L11.2726 16.3066L11.5377 16.0414ZM7.49996 12.0023L7.76508 12.2675L11.8028 8.22827L11.5377 7.96306L11.2726 7.69785L7.23484 11.737L7.49996 12.0023Z" fill="white"/>
</svg>
