<svg width="15" height="14" viewBox="0 0 15 14" fill="none" xmlns="http://www.w3.org/2000/svg">
<path d="M9.66071 12.2374C8.84629 12.6156 7.94232 12.8618 6.99049 12.8618C3.40598 12.8618 0.500171 9.37068 0.500171 8.48362C0.500171 7.9808 1.43382 6.64131 2.8955 5.57521M12.702 9.88671C13.1987 9.28913 13.4808 8.75999 13.4808 8.48362C13.4808 7.59656 10.575 4.10549 6.99049 4.10549C8.56767 4.10549 9.8462 5.37382 9.8462 6.9384M6.99046 9.77131C5.41328 9.77131 4.13472 8.50297 4.13472 6.9384M14 4.10557C12.0232 2.4695 9.71525 1.5302 7.2501 1.5302C6.36158 1.5302 5.4935 1.65222 4.65397 1.88492M0.500171 4.10557C0.683415 3.95392 0.869503 3.80825 1.0583 3.66876M0.5 0.5L13.0356 13.1561" stroke="black" stroke-linecap="round"/>
</svg>
