<svg width="10" height="10" viewBox="0 0 10 10" fill="none" xmlns="http://www.w3.org/2000/svg">
<path d="M6.60714 8.32493C6.06419 8.57706 5.46154 8.74117 4.82699 8.74117C2.43732 8.74117 0.500114 6.41379 0.500114 5.82241C0.500114 5.4872 1.12255 4.59421 2.097 3.88347M8.63464 6.75781C8.96582 6.35942 9.15387 6.00666 9.15387 5.82241C9.15387 5.23104 7.21666 2.90366 4.82699 2.90366C5.87844 2.90366 6.7308 3.74922 6.7308 4.79227M4.82697 6.68087C3.77552 6.68087 2.92315 5.83531 2.92315 4.79227M9.50002 2.90372C8.18211 1.813 6.6435 1.1868 5.00007 1.1868C4.40772 1.1868 3.829 1.26815 3.26932 1.42328M0.500114 2.90372C0.622276 2.80261 0.746335 2.7055 0.872198 2.61251M0.5 0.5L8.85705 8.93741" stroke="black" stroke-linecap="round"/>
</svg>
