<svg width="19" height="18" viewBox="0 0 19 18" fill="none" xmlns="http://www.w3.org/2000/svg">
<path d="M12.7143 16.1499C11.6284 16.6541 10.4231 16.9823 9.15398 16.9823C4.37465 16.9823 0.500228 12.3276 0.500228 11.1448C0.500228 10.4744 1.74509 8.68841 3.69399 7.26694M16.7693 13.0156C17.4316 12.2188 17.8077 11.5133 17.8077 11.1448C17.8077 9.96208 13.9333 5.30732 9.15398 5.30732C11.2569 5.30732 12.9616 6.99843 12.9616 9.08453M9.15395 12.8617C7.05104 12.8617 5.3463 11.1706 5.3463 9.08453M18.5 5.30743C15.8642 3.126 12.787 1.8736 9.50013 1.8736C8.31545 1.8736 7.15799 2.0363 6.03863 2.34655M0.500228 5.30743C0.744553 5.10522 0.99267 4.911 1.2444 4.72502M0.5 0.5L17.2141 17.3748" stroke="black" stroke-linecap="round"/>
</svg>
