<svg width="10" height="9" viewBox="0 0 10 9" fill="none" xmlns="http://www.w3.org/2000/svg">
<path d="M4.82692 2.20453C2.43723 2.20453 0.5 4.51514 0.5 5.10226C0.5 5.68937 2.43723 7.99998 4.82692 7.99998C7.21662 7.99998 9.15385 5.68937 9.15385 5.10226C9.15385 4.51514 7.21662 2.20453 4.82692 2.20453ZM4.82692 2.20453C3.77546 2.20453 2.9231 3.04399 2.9231 4.07953C2.9231 5.11506 3.77548 5.95453 4.82694 5.95453C5.87841 5.95453 6.73079 5.11506 6.73079 4.07953C6.73079 3.04399 5.87839 2.20453 4.82692 2.20453ZM9.5 2.20455C8.18208 1.12169 6.64345 0.5 5 0.5C3.35655 0.5 1.81792 1.12169 0.5 2.20455" stroke="black" stroke-linecap="round"/>
</svg>
