<svg width="19" height="16" viewBox="0 0 19 16" fill="none" xmlns="http://www.w3.org/2000/svg">
<path d="M9.15385 3.90906C4.37446 3.90906 0.5 8.53029 0.5 9.70451C0.5 10.8787 4.37446 15.5 9.15385 15.5C13.9332 15.5 17.8077 10.8787 17.8077 9.70451C17.8077 8.53029 13.9332 3.90906 9.15385 3.90906ZM9.15385 3.90906C7.05092 3.90906 5.34619 5.58799 5.34619 7.65906C5.34619 9.73013 7.05095 11.4091 9.15388 11.4091C11.2568 11.4091 12.9616 9.73013 12.9616 7.65906C12.9616 5.58799 11.2568 3.90906 9.15385 3.90906ZM18.5 3.90909C15.8642 1.74337 12.7869 0.5 9.5 0.5C6.21309 0.5 3.13584 1.74337 0.5 3.90909" stroke="black" stroke-linecap="round"/>
</svg>
